<?xml version="1.0" encoding="utf-8"?>
<!-- Generator: Adobe Illustrator 21.0.0, SVG Export Plug-In . SVG Version: 6.00 Build 0)  -->
<svg version="1.0" id="Layer_1" xmlns="http://www.w3.org/2000/svg" xmlns:xlink="http://www.w3.org/1999/xlink" x="0px" y="0px"
	 viewBox="0 0 356 200" width="421.900462195" height="237.02273157" style="enable-background:new 0 0 356 200; background-color:#111" xml:space="preserve">
<style type="text/css">
	.st0{fill:none;stroke:#FFCE00;stroke-width:3.2837;stroke-linecap:round;stroke-linejoin:round;stroke-miterlimit:10;}
	.st1{fill:none;stroke:#E4332F;stroke-width:3.2837;stroke-linecap:round;stroke-linejoin:round;stroke-miterlimit:10;}
	.st2{fill:none;stroke:#FFFFFF;stroke-width:3.2837;stroke-linecap:round;stroke-linejoin:round;stroke-miterlimit:10;}
</style>
<g>
	<rect width="" height=""/>
	<g>
		<g>
			<path d="M269.3,23.1c-0.7-0.5-1.7-0.7-2.5-0.7h-0.1c0.8-2.6,1.4-5.2,1.3-7.4s-1.6-4-3.7-4.8c-0.5-0.1-1.1-0.2-1.6-0.2
				c-1.6,0-3.1,0.7-4.1,1.9c-4.6,5.7-5.7,6.4-8,8.1c-0.1,0.1-0.3,0.2-0.5,0.3c0-0.7,0-1.5,0-2.1c0-2.4-1.7-4.5-4-5
				c-0.3-0.1-0.8-0.1-1.4-0.1c-1.9,0-3.7,1.1-4.6,2.6c-3.4,6.2-5.9,7.5-9.1,9.2c-1.5,0.8-3.2,1.7-5,3.1c-1.5,1.1-2.5,2.1-3.7,3
				c0-0.1,0-0.2,0-0.2c-0.6-2.2-2.5-3.7-4.9-3.8H217c-2.2,0-4.2,1.6-5,3.8c-0.7,2.3-1.4,4-3.9,9.1c-0.8,1.8-1.7,3.2-2.6,4.8
				c-1.3,2.1-2.5,4.1-4,7.3c0,0.1,0,0.1-0.1,0.2c0,0,0,0.1-0.1,0.1c-0.8,2.2-2.1,4.1-3.2,5.6c-0.7-0.6-1.6-1.1-2.5-1.4
				c-0.7-0.1-1.6-0.2-2.4-0.2c-2.1,0-4,0.5-5.7,1.1c-0.3-0.3-0.6-0.6-0.6-0.6l-0.2-0.1c-0.8-0.6-1.8-1.1-2.7-1.6
				c0.1-0.7,0.1-1.6,0-2.3c-0.8-4.5-4.6-9.4-10.7-9.4c-3.2,0-5.8,1.4-7.6,3.8c-0.2,0-0.5,0-0.7,0c-3.5,0-6.4,1.7-8.2,4.8
				c-0.6,1.1-1.1,2.3-1.4,3.4c-0.7,0.1-1.4,0.2-1.9,0.6c-3.9,2.2-5.6,5.9-4.6,9.8c0.1,0.3,0.2,0.6,0.3,0.8c-0.3,0.2-0.7,0.6-1.1,1
				v-4.3c0-1.3-0.3-2.3-1.1-3.2c0.6-0.8,1.1-1.9,1.1-3.2c0-3-2.3-5.2-5.2-5.2h-15.2c-2.7,0-5.1,2.2-5.2,5c-0.1-2.7-2.4-5-5.2-5
				h-15.4c-3,0-5.2,2.3-5.2,5.2v55.6c0,2.1,1.3,3.8,3,4.8c-3.8,1.6-6.8,4-9.2,7.2c-4.1,5.6-6.2,14-6.2,25.1
				c0,11.2,1.9,19.2,6.1,24.7c4.3,5.7,11.4,8.7,20.9,8.7s16.6-3,21-8.8c0.5-0.6,0.8-1.3,1.3-1.8v4.3c0,3,2.3,5.2,5.2,5.2h13.6
				c3,0,5.2-2.3,5.2-5.2v-2.6l2.2,4.9c0.8,1.9,2.6,3.2,4.8,3.2H179c1.1,0,2.2-0.3,3-1c0.8,0.6,1.9,1.1,3.2,1.1h30
				c1.8,0,3.4-0.8,4.3-2.3c0.2,0.1,0.5,0.2,0.8,0.3c5.8,1.9,11.8,2.7,17.8,2.7c7.1,0,12.7-2.1,16.7-6.2s6.1-9.7,6.1-16.8
				c0-4-0.8-7.6-2.6-10.8c-1.7-3.1-3.9-5.6-6.5-7.3c-0.2-0.1-0.5-0.3-0.7-0.5c0.1,0,0.2,0,0.3,0.1c0.3,0.1,0.8,0.1,1.3,0.1
				c1.1,0,2.1-0.3,3-1c1.3-0.8,2.1-2.2,2.2-3.5l1.3-8.2c0.1-1.3,0-2.3-0.6-3.4c0.6-0.7,1-1.5,1.3-2.4c0.5-2.7-1.4-5.6-4.1-6.1
				c-5-1-9.8-1.5-14.6-1.6c0.6-0.8,0.8-1.8,0.8-3V75.7h5.1c2.7,0,5.1-2.2,5.2-4.9l0.8-12.7c2.5-1.1,3.3-5.7,6.3-8.6
				c2.1-1.8,4.1-4.3,7.6-9.7c3-4.6,5.1-10.2,5.2-10.5C272.7,27.1,271.6,24.5,269.3,23.1z"/>
		</g>
		<g>
			<path class="st0" d="M142.6,62.7v49.9h-15.2v-21H117v21h-15.4V57H117v21.9h10.5V57h15.2"/>
			<path class="st0" d="M236,112.4h-15.3V70.5h-11l0.8-13.5 M247.3,57l-0.8,13.5h-10.3v41.9"/>
			<g>
				<path class="st0" d="M113.9,120.5c6.3,0.5,11.1,2.7,13.9,7c3.4,4.8,5.1,12,5.1,21.9c0,9.9-1.7,17.1-5.1,21.5
					c-3.4,4.5-9,6.7-16.9,6.7c-7.8,0-13.4-2.2-16.8-6.5c-3.4-4.3-5-11.5-5-21.5c0-9.9,1.7-17.2,5.2-22c3-4,7.6-7,14.3-7.2
					 M108.5,133.7c-1.6,0.3-2.4,1.3-2.7,2.3c-0.7,1.9-1.3,5.6-1.3,11.1v2.2c0,5.8,0.5,9.6,1.4,11.4s2.6,2.6,5.2,2.6
					c2.6,0,4.3-0.8,5.1-2.5c0.7-1.7,1.3-5.4,1.3-10.7v-2.7c0-5.5-0.5-9.2-1.4-11.2c-0.5-1.1-1.3-1.9-2.5-2.3"/>
				<path class="st0" d="M178.8,126.3v50.2h-14.6l-11.5-25.8H152v25.8h-13.6 M138.4,176.6v-55.4h15.1l11,26.6h0.7v-26.6h13.6"/>
				<path class="st0" d="M215.6,126.3l-0.6,8.8h-14.7v8.2H213v11.8h-12.8v9.2h15.6l-0.8,12.6h-30v-55.4 M185,121.4h30.8"/>
				<path class="st0" d="M253.6,127.1l-1.4,9.2c-5.9-1.4-9.9-2.1-12.1-2.1c-2.7,0-4.2,1.1-4.2,3.4c0,0.8,0.7,1.7,2.1,2.5
					c1.4,0.8,3,1.7,4.9,2.6c1.9,1,3.8,2.1,5.7,3.3c1.9,1.3,3.5,3.2,4.9,5.5c1.4,2.4,2.1,5.1,2.1,8.2c0,5.7-1.6,10.1-4.5,13.1
					c-3.1,3.1-7.3,4.6-12.9,4.6c-5.6,0-11.1-0.8-16.3-2.5l1-13.4 M222.7,161.8c6.3,1.8,10.8,2.7,13.2,2.7c2.5,0,3.8-1.1,3.8-3.3
					c0-1.1-0.6-2.2-1.9-3.2c-1.4-1-3-1.9-4.9-2.7c-1.9-1-3.8-2.1-5.7-3.3c-1.9-1.3-3.5-3.1-4.9-5.5c-1.4-2.4-2.1-5.2-2.1-8.6
					c0-5.4,1.6-9.6,4.6-12.8c3.2-3.2,7.3-4.9,12.8-4.9c5.4,0,11,0.5,16.6,1.6"/>
			</g>
			<path class="st0" d="M204.5,73.5c1.3,3.2,1.9,6.7,1.9,10.3c0,15.9-12.9,28.8-28.7,28.8c-15.9,0-28.8-12.9-28.8-28.8
				c0-4.5,1-8.8,3-12.7"/>
			<path class="st1" d="M162.3,61.1c0,0-3.4-2.5-1.1-6.5s7.5-1,7.5-1s0-4.8,4.5-4.8c4.5,0,5.8,5.4,5.8,5.4"/>
			<path class="st2" d="M164.1,102.6c0.6-4.3,1.4-11-0.8-17.7c-4.2-13.2,0-22.7,9.6-25c4.1-1,7.9-1,11,1.4c0,0,1.1,1,1.7,2.1"/>
			<path class="st2" d="M195.9,97.3c-2.4-2.1-6.1-7.2-7.1-12c-0.8-4.8-0.7-6.1-0.3-7.9"/>
			<path class="st1" d="M194.3,78.7c0,0-0.1,1.9,0.6,2.7c0.7,1.1,0.8,1.8,0.7,2.5c-0.2,0.7-1.1,1.4-2.2,0.8"/>
			<line class="st0" x1="172.5" y1="70.2" x2="180" y2="74.6"/>
			<line class="st0" x1="174.1" y1="76.1" x2="178.4" y2="68.6"/>
			<path class="st1" d="M157.9,67.5c0,0-3.2,0.3-4.1-3.1c-0.5-2.1,0.8-3.3,2.1-4"/>
			<path class="st0" d="M185.9,64.4c0,0,4.6-3.3,9-2.4l-4,5.9"/>
			<line class="st0" x1="191.4" y1="73.5" x2="198.9" y2="74.9"/>
			<path class="st1" d="M200.4,70.2c0,0,3-2.1,5.5-2.3"/>
			<line class="st0" x1="210.8" y1="57" x2="242.3" y2="57"/>
			<path class="st1" d="M250.2,53c0,0,0.3-1.1,1.8-3.3c2.6-4.1,5.1-4.8,10.2-12.7c2.6-4.1,4.8-9.5,4.8-9.5s-1.3,1.6-5.6,4.6
				c-4.5,3.1-8.8,4.2-8.8,4.2c2.4-3.7,1.6-2.6,5.9-8.9c3.1-4.3,4.5-9.4,4.3-12.2c-6.5,8.1-7,7.4-11.5,11.1
				c-5.6,4.3-10.5,5.9-10.5,5.9s1.7-3.1,3-5.8c1.4-2.7,1.3-5.5,1.3-7.9c-5.7,10.5-10.3,9.9-15.5,13.9c-5.2,3.9-7.2,6.2-8.2,7.9
				c-2.4,3.7-1.7,2.3-3.8,4.8c1-4.8,0.6-6.5,0.6-6.5c0.2-3.2-0.6-6.2-0.6-6.2c-0.8,2.5-1.4,4.5-4.2,10.1c-2.1,4.1-3.3,6.1-6.7,11.9
				c-3.3,6.7-8.9,12-8.9,12"/>
		</g>
	</g>
</g>
</svg>
